<svg xmlns="http://www.w3.org/2000/svg" width="1400" height="700" viewBox="0 0 1400 700">
<rect width="100%" height="100%" fill="white"/>
<style>text{font-family:Arial,"Microsoft YaHei",sans-serif;} .grid{stroke:#e8e8e8;stroke-width:1;} .axis{stroke:#222;stroke-width:1.5;}</style>
<line class="grid" x1="90" y1="610.00" x2="1360" y2="610.00"/>
<text x="80" y="614.00" font-size="12" text-anchor="end" fill="#444">79476</text>
<line class="grid" x1="90" y1="541.25" x2="1360" y2="541.25"/>
<text x="80" y="545.25" font-size="12" text-anchor="end" fill="#444">85489</text>
<line class="grid" x1="90" y1="472.50" x2="1360" y2="472.50"/>
<text x="80" y="476.50" font-size="12" text-anchor="end" fill="#444">91501</text>
<line class="grid" x1="90" y1="403.75" x2="1360" y2="403.75"/>
<text x="80" y="407.75" font-size="12" text-anchor="end" fill="#444">97514</text>
<line class="grid" x1="90" y1="335.00" x2="1360" y2="335.00"/>
<text x="80" y="339.00" font-size="12" text-anchor="end" fill="#444">103526</text>
<line class="grid" x1="90" y1="266.25" x2="1360" y2="266.25"/>
<text x="80" y="270.25" font-size="12" text-anchor="end" fill="#444">109539</text>
<line class="grid" x1="90" y1="197.50" x2="1360" y2="197.50"/>
<text x="80" y="201.50" font-size="12" text-anchor="end" fill="#444">115552</text>
<line class="grid" x1="90" y1="128.75" x2="1360" y2="128.75"/>
<text x="80" y="132.75" font-size="12" text-anchor="end" fill="#444">121564</text>
<line class="grid" x1="90" y1="60.00" x2="1360" y2="60.00"/>
<text x="80" y="64.00" font-size="12" text-anchor="end" fill="#444">127577</text>
<line class="grid" x1="90.00" y1="60" x2="90.00" y2="610"/>
<text x="90.00" y="632" font-size="12" text-anchor="middle" fill="#444">00:00</text>
<line class="grid" x1="196.95" y1="60" x2="196.95" y2="610"/>
<text x="196.95" y="632" font-size="12" text-anchor="middle" fill="#444">02:00</text>
<line class="grid" x1="303.89" y1="60" x2="303.89" y2="610"/>
<text x="303.89" y="632" font-size="12" text-anchor="middle" fill="#444">04:00</text>
<line class="grid" x1="410.84" y1="60" x2="410.84" y2="610"/>
<text x="410.84" y="632" font-size="12" text-anchor="middle" fill="#444">06:00</text>
<line class="grid" x1="517.79" y1="60" x2="517.79" y2="610"/>
<text x="517.79" y="632" font-size="12" text-anchor="middle" fill="#444">08:00</text>
<line class="grid" x1="624.74" y1="60" x2="624.74" y2="610"/>
<text x="624.74" y="632" font-size="12" text-anchor="middle" fill="#444">10:00</text>
<line class="grid" x1="731.68" y1="60" x2="731.68" y2="610"/>
<text x="731.68" y="632" font-size="12" text-anchor="middle" fill="#444">12:00</text>
<line class="grid" x1="838.63" y1="60" x2="838.63" y2="610"/>
<text x="838.63" y="632" font-size="12" text-anchor="middle" fill="#444">14:00</text>
<line class="grid" x1="945.58" y1="60" x2="945.58" y2="610"/>
<text x="945.58" y="632" font-size="12" text-anchor="middle" fill="#444">16:00</text>
<line class="grid" x1="1052.53" y1="60" x2="1052.53" y2="610"/>
<text x="1052.53" y="632" font-size="12" text-anchor="middle" fill="#444">18:00</text>
<line class="grid" x1="1159.47" y1="60" x2="1159.47" y2="610"/>
<text x="1159.47" y="632" font-size="12" text-anchor="middle" fill="#444">20:00</text>
<line class="grid" x1="1266.42" y1="60" x2="1266.42" y2="610"/>
<text x="1266.42" y="632" font-size="12" text-anchor="middle" fill="#444">22:00</text>
<line class="grid" x1="1360.00" y1="60" x2="1360.00" y2="610"/>
<text x="1360.00" y="632" font-size="12" text-anchor="middle" fill="#444">23:45</text>
<line class="axis" x1="90" y1="60" x2="90" y2="610"/>
<line class="axis" x1="90" y1="610" x2="1360" y2="610"/>
<polyline fill="none" stroke="#1f77b4" stroke-width="2.5" stroke-dasharray="8 6" points="90.00,434.21 103.37,328.21 116.74,338.28 130.11,359.26 143.47,383.04 156.84,398.53 170.21,412.26 183.58,430.55 196.95,440.61 210.32,453.36 223.68,468.00 237.05,468.91 250.42,482.63 263.79,487.21 277.16,500.87 290.53,506.36 303.89,518.25 317.26,527.97 330.63,533.00 344.00,535.29 357.37,535.40 370.74,528.31 384.11,526.20 397.47,509.10 410.84,501.21 424.21,478.12 437.58,451.53 450.95,433.64 464.32,417.06 477.68,402.54 491.05,393.27 504.42,375.09 517.79,333.36 531.16,286.42 544.53,255.26 557.89,242.23 571.26,224.62 584.63,205.18 598.00,198.38 611.37,197.58 624.74,207.52 638.11,241.83 651.47,243.03 664.84,251.89 678.21,254.80 691.58,261.27 704.95,280.99 718.32,314.38 731.68,359.77 745.05,326.10 758.42,339.36 771.79,345.88 785.16,347.42 798.53,332.27 811.89,299.06 825.26,265.95 838.63,271.96 852.00,285.16 865.37,276.64 878.74,266.75 892.11,259.84 905.47,250.40 918.84,237.82 932.21,223.99 945.58,206.49 958.95,186.14 972.32,166.99 985.68,150.41 999.05,142.69 1012.42,145.95 1025.79,163.84 1039.16,179.91 1052.53,180.25 1065.89,161.90 1079.26,142.63 1092.63,123.65 1106.00,118.96 1119.37,89.46 1132.74,97.93 1146.11,105.24 1159.47,128.11 1172.84,132.97 1186.21,138.17 1199.58,147.26 1212.95,166.19 1226.32,186.60 1239.68,206.04 1253.05,226.56 1266.42,252.80 1279.79,283.45 1293.16,305.34 1306.53,334.62 1319.89,365.66 1333.26,391.27 1346.63,415.91 1360.00,438.78"/>
<polyline fill="none" stroke="#d62728" stroke-width="2.5" points="90.00,355.95 103.37,357.70 116.74,375.63 130.11,401.87 143.47,423.73 156.84,439.12 170.21,452.72 183.58,464.38 196.95,476.03 210.32,488.51 223.68,501.47 237.05,509.95 250.42,519.73 263.79,527.65 277.16,537.67 290.53,546.95 303.89,552.83 317.26,563.80 330.63,563.64 344.00,569.04 357.37,559.49 370.74,557.00 384.11,549.07 397.47,540.39 410.84,512.11 424.21,495.13 437.58,472.80 450.95,467.53 464.32,452.94 477.68,455.24 491.05,452.45 504.42,427.03 517.79,391.61 531.16,374.06 544.53,370.60 557.89,364.70 571.26,372.16 584.63,380.79 598.00,388.95 611.37,401.22 624.74,444.80 638.11,452.35 651.47,458.87 664.84,464.13 678.21,471.69 691.58,491.05 704.95,520.06 718.32,580.54 731.68,541.35 745.05,547.78 758.42,549.35 771.79,549.37 785.16,533.65 798.53,494.06 811.89,451.41 825.26,458.09 838.63,470.39 852.00,454.45 865.37,436.49 878.74,423.17 892.11,404.47 905.47,382.71 918.84,363.05 932.21,334.97 945.58,305.47 958.95,279.25 972.32,246.88 985.68,229.26 999.05,215.15 1012.42,227.50 1025.79,228.65 1039.16,218.94 1052.53,192.05 1065.89,166.71 1079.26,140.18 1092.63,135.99 1106.00,101.44 1119.37,106.97 1132.74,114.47 1146.11,139.62 1159.47,139.39 1172.84,143.46 1186.21,150.37 1199.58,171.45 1212.95,190.64 1226.32,206.41 1239.68,224.41 1253.05,257.35 1266.42,281.02 1279.79,305.29 1293.16,331.59 1306.53,365.10 1319.89,386.63 1333.26,411.78 1346.63,436.16"/>
<text x="700.0" y="32" text-anchor="middle" font-size="20" font-weight="bold">市场披露统调负荷：预测 vs 实际</text>
<text x="700.0" y="52" text-anchor="middle" font-size="12" fill="#666">预测(虚线) | 实际(实线)</text>
<rect x="1110" y="72" width="250" height="58" rx="6" fill="#fff" stroke="#ddd"/>
<line x1="1124" y1="92" x2="1184" y2="92" stroke="#1f77b4" stroke-width="2.5" stroke-dasharray="8 6"/>
<text x="1192" y="96" font-size="13">预测统调负荷</text>
<line x1="1124" y1="114" x2="1184" y2="114" stroke="#d62728" stroke-width="2.5"/>
<text x="1192" y="118" font-size="13">实际统调负荷</text>
<text x="700.0" y="678" text-anchor="middle" font-size="14">时间（15分钟）</text>
<text x="24" y="350.0" transform="rotate(-90 24,350.0)" text-anchor="middle" font-size="14">负荷 (MW)</text>
</svg>